<?xml version="1.0" standalone="no"?>
<!DOCTYPE svg PUBLIC "-//W3C//DTD SVG 1.1//EN" "http://www.w3.org/Graphics/SVG/1.1/DTD/svg11.dtd" >
<svg xmlns="http://www.w3.org/2000/svg">
<metadata>
This is a custom SVG webfont generated by Font Squirrel.
Copyright   : Digitized data copyright The Monotype Corporation 19911997 All rights reserved Twentieth Century is a trademark of The Monotype Corporation which may be registered in certain jurisdictions
Designer    : Sol Hess
Foundry     : Monotype Typography
Foundry URL : httpwwwmonotypecomhtmlmtnamemswelcomehtml
</metadata>
<defs>
<font id="TwCenMTCondensedRegular" horiz-adv-x="748" >
<font-face units-per-em="2048" ascent="1638" descent="-410" />
<missing-glyph horiz-adv-x="373" />
<glyph unicode=" "  horiz-adv-x="373" />
<glyph unicode="&#x09;" horiz-adv-x="373" />
<glyph unicode="&#xa0;" horiz-adv-x="373" />
<glyph unicode="!" horiz-adv-x="385" d="M117 86q0 38 28 66t66 28q40 0 67 -27t27 -67t-27 -67t-67 -27q-39 0 -66.5 27.5t-27.5 66.5zM127 303v977h166v-977h-166z" />
<glyph unicode="&#x22;" horiz-adv-x="727" d="M94 1227v239h207v-239l-47 -281h-109zM428 1227v239h205v-239l-49 -281h-109z" />
<glyph unicode="#" horiz-adv-x="1368" d="M90 356v123h223l78 371h-301v123h326l86 403h121l-86 -403h421l84 403h123l-86 -403h199v-123h-223l-76 -371h299v-123h-324l-84 -401h-122l86 401h-424l-84 -401h-123l84 401h-197zM434 481h424l76 369h-422z" />
<glyph unicode="$" d="M80 973q0 287 268 321v90h70v-90q213 0 270 -190l-145 -74q-38 109 -123 115v-408q170 -107 225 -189.5t55 -207.5q0 -153 -73.5 -248t-206.5 -104v-113h-72v111q-99 0 -156.5 44.5t-99.5 151.5l133 66q34 -98 123 -109v434q-142 88 -205 182t-63 218zM246 979 q0 -129 102 -188v352q-102 -32 -102 -164zM420 145q110 39 110 189q0 125 -110 192v-381z" />
<glyph unicode="%" horiz-adv-x="1409" d="M141 901q0 255 62 327t129 72h2q87 0 142.5 -73.5t55.5 -343.5q0 -237 -56.5 -320.5t-143.5 -83.5q-82 0 -136.5 81t-54.5 341zM266 809q0 -120 14 -171.5t50 -51.5q42 0 60 66.5t18 213.5q0 197 -13.5 261.5t-54.5 64.5q-22 0 -40 -23t-19 -57l-13 -225q-2 -27 -2 -78z M334 -72l694 1379h102l-700 -1379h-96zM930 332q0 298 67 364t133 66q105 0 148 -99.5t43 -326.5q0 -397 -205 -397q-81 0 -133.5 74.5t-52.5 318.5zM1053 389q0 -217 11.5 -277.5t53.5 -60.5q24 0 41 19.5t19 52.5l12 223q2 29 2 88q0 120 -11 169.5t-51 49.5 q-42 0 -59.5 -62.5t-17.5 -201.5z" />
<glyph unicode="&#x26;" horiz-adv-x="938" d="M104 289q0 152 199 336q-113 176 -113 313q0 104 73.5 176t180.5 72q118 0 182 -63.5t64 -180.5q0 -139 -188 -326l172 -284q59 78 96 143l107 -69q-71 -125 -125 -195l127 -207h-193l-49 80q-136 -98 -246 -98q-121 0 -204 87t-83 216zM276 301q0 -65 41.5 -113.5 t96.5 -48.5q70 0 147 68l-182 285q-103 -101 -103 -191zM342 942q0 -82 80 -199q115 137 115 218q0 39 -26 65.5t-65 26.5q-41 0 -72.5 -33.5t-31.5 -77.5z" />
<glyph unicode="'" horiz-adv-x="391" d="M92 1221v245h207v-245l-49 -275h-111z" />
<glyph unicode="(" horiz-adv-x="385" d="M37 467q0 179 49.5 411t153.5 445l127 -61q-183 -418 -183 -785q0 -187 45.5 -400.5t139.5 -393.5l-125 -68q-97 172 -152 422.5t-55 429.5z" />
<glyph unicode=")" horiz-adv-x="385" d="M43 -315q96 204 139 409t43 352q0 187 -44 401t-138 410l127 66q95 -185 148 -425.5t53 -430.5q0 -181 -57.5 -436t-147.5 -410z" />
<glyph unicode="*" horiz-adv-x="674" d="M86 885q0 34 25.5 51t91.5 25t106 30v21q-32 16 -99 24.5t-95.5 27.5t-28.5 58q0 25 21.5 44.5t50.5 19.5q36 0 86 -64t80 -84l16 9q0 33 -25.5 96.5t-25.5 91.5t18.5 48t44.5 20q70 0 70 -70q0 -23 -25 -90q-24 -52 -24 -78v-18l16 -9q38 26 84 86q48 62 90 62 q27 0 45.5 -20t18.5 -48q0 -36 -26.5 -54t-90.5 -26t-102 -26l-2 -21q27 -15 97 -26t97 -28.5t27 -53.5q0 -29 -19.5 -48.5t-48.5 -19.5q-41 0 -89.5 63.5t-80.5 82.5l-18 -7q2 -41 28.5 -96.5t26.5 -91.5q0 -29 -21 -48.5t-53 -19.5q-19 0 -40 21.5t-21 46.5q0 24 24.5 87 t24.5 103l-12 11q-26 -14 -77 -83t-97 -69q-26 0 -47 22t-21 48z" />
<glyph unicode="+" horiz-adv-x="1366" d="M137 596v131h477v479h131v-479h482v-131h-482v-475h-131v475h-477z" />
<glyph unicode="," horiz-adv-x="385" d="M80 -242l141 473l129 -51l-192 -448z" />
<glyph unicode="-" horiz-adv-x="469" d="M88 383v125h326v-125h-326z" />
<glyph unicode="." horiz-adv-x="385" d="M109 96q0 42 28.5 70.5t69.5 28.5q46 0 75 -28t29 -71t-29.5 -73.5t-70.5 -30.5q-42 0 -72 31t-30 73z" />
<glyph unicode="/" horiz-adv-x="555" d="M59 -385l387 1702h80l-385 -1702h-82z" />
<glyph unicode="0" d="M100 678q0 259 28.5 372.5t91.5 179.5t167 66h2q148 0 219.5 -137.5t71.5 -513.5q0 -306 -31 -422t-94 -176.5t-166 -60.5q-107 0 -174.5 72.5t-91 199.5t-23.5 420zM279 518q0 -204 21 -291.5t89 -87.5q45 0 69 37t31 113.5t7 355.5v53l2 54v45q0 148 -6.5 200t-33.5 99 t-71 47q-64 0 -86 -83t-22 -274v-41l2 -43v-45l-2 -108v-31z" />
<glyph unicode="1" d="M197 1139v137h278v-1276h-166v1139h-112z" />
<glyph unicode="2" d="M76 0l223 440q7 8 18.5 35t16.5 37q86 172 122 278.5t36 200.5q0 71 -28 110.5t-77 39.5q-77 0 -96 -71.5t-21 -205.5h-168v20q0 252 73 329q75 79 224 79q271 0 271 -284q0 -101 -36 -220.5t-126 -304.5l-160 -327h285v-156h-557z" />
<glyph unicode="3" d="M100 330h162q2 -193 115 -193q62 0 89.5 50t27.5 159q0 163 -43 207q-41 43 -141 43h-5v152q115 0 152 40.5t37 163.5q0 102 -23 147.5t-76 45.5q-59 0 -80 -46t-22 -145h-164q2 190 66.5 267t201.5 77q145 0 209 -80t64 -260q0 -145 -29.5 -198t-101.5 -88 q72 -39 102.5 -100t30.5 -205q0 -202 -70.5 -290.5t-232.5 -88.5q-152 0 -209.5 81.5t-59.5 260.5z" />
<glyph unicode="4" d="M100 354v158l346 780h158v-786h72v-152h-70l-2 -2v-352h-168v354h-336zM233 506h205v457h-4z" />
<glyph unicode="5" d="M80 47l49 150q8 -3 25 -13q64 -34 118 -34q97 0 153 75t56 207q0 121 -57.5 185.5t-165.5 64.5q-38 0 -111 -16l93 610h422v-158h-289l-41 -289q327 -30 327 -385q0 -199 -106 -329.5t-266 -130.5q-94 0 -207 63z" />
<glyph unicode="6" d="M104 395q0 136 14.5 228.5t50 191t94.5 219.5l120 242h190l-155 -311l-84 -189q57 27 100 27q112 0 177 -80t65 -311q0 -238 -72 -332t-225 -94q-144 0 -209.5 98t-65.5 311zM285 444l2 -18v-33q0 -141 22 -199.5t84 -58.5q103 0 103 209l-2 16v21l2 43v20 q0 127 -30.5 164t-70.5 37q-63 0 -86.5 -45.5t-23.5 -155.5z" />
<glyph unicode="7" d="M160 1116v158h555l-367 -1274l-168 2l322 1114h-342z" />
<glyph unicode="8" d="M102 352q0 147 39 222.5t125 111.5q-74 38 -104.5 95.5t-30.5 187.5q0 170 58.5 247.5t187.5 77.5q138 0 202 -73t64 -232q0 -139 -30.5 -201t-104.5 -98q91 -46 125.5 -123.5t34.5 -216.5q0 -191 -67.5 -277.5t-217.5 -86.5q-281 0 -281 366zM285 395 q0 -141 21.5 -199.5t84.5 -58.5q98 0 98 207q0 142 -21 202t-81 60q-57 0 -79.5 -49t-22.5 -162zM293 958q0 -109 19.5 -155.5t70.5 -46.5q54 0 75 48t21 159q0 95 -21 137.5t-71 42.5q-55 0 -74.5 -42t-19.5 -143z" />
<glyph unicode="9" d="M104 854q0 168 24 253t89.5 135t173.5 50q147 0 214 -91.5t67 -358.5q0 -180 -36.5 -311t-125.5 -305.5t-111 -225.5h-188l31 63q170 351 202 437q-71 -25 -112 -25q-102 0 -165 81.5t-63 297.5zM283 938q0 -170 18 -238.5t86 -68.5q77 0 92 59t15 195v26q0 230 -107 230 h-4q-54 0 -77 -48t-23 -155z" />
<glyph unicode=":" horiz-adv-x="385" d="M109 567q0 42 29.5 72.5t70.5 30.5h2q42 0 71 -30.5t29 -74.5q0 -43 -28.5 -71.5t-71.5 -28.5t-72.5 29.5t-29.5 72.5zM111 92q0 43 29.5 74t70.5 31h2q41 0 69.5 -30t28.5 -71q0 -43 -28.5 -73.5t-69.5 -30.5q-43 0 -72.5 29.5t-29.5 70.5z" />
<glyph unicode=";" horiz-adv-x="385" d="M61 -231l140 471l129 -52l-189 -450zM150 582q0 41 30 71.5t70 30.5h2q41 0 71.5 -30t30.5 -70q0 -45 -30 -76t-74 -31q-41 0 -70.5 31t-29.5 74z" />
<glyph unicode="&#x3c;" horiz-adv-x="1366" d="M141 604v119l1084 457v-144l-908 -372l908 -375v-142z" />
<glyph unicode="=" horiz-adv-x="1366" d="M139 367v131h1088v-131h-1088zM139 834v133h1088v-133h-1088z" />
<glyph unicode="&#x3e;" horiz-adv-x="1366" d="M139 147v142l910 373l-910 374v144l1086 -459v-117z" />
<glyph unicode="?" horiz-adv-x="662" d="M116 983v29q0 170 56 224q61 60 159 60q149 0 202.5 -66.5t53.5 -246.5q0 -143 -10 -224.5t-49.5 -126t-127.5 -61.5v-268h-145v363q107 0 146.5 48t39.5 204v67q0 100 -18.5 141t-71.5 41q-52 0 -71 -41.5t-19 -142.5h-145zM236 80q0 42 25.5 70t62.5 28h3 q39 0 66.5 -27t27.5 -65t-27 -65t-65 -27q-40 0 -66.5 24.5t-26.5 61.5z" />
<glyph unicode="@" horiz-adv-x="2079" d="M117 469q0 279 129 525.5t348 372.5t512 126q396 0 626 -235t230 -529q0 -301 -192 -517t-404 -216q-107 0 -149.5 39.5t-49.5 128.5q-148 -166 -303 -166q-157 0 -261.5 128t-104.5 325q0 146 75 301.5t196.5 243t246.5 87.5q187 0 303 -184l33 156h180l-160 -742 q-14 -67 -14 -86q0 -27 21 -46t51 -19q50 0 148 70t166 203.5t68 281.5q0 270 -204 450.5t-512 180.5q-358 0 -595 -246t-237 -617q0 -363 228 -565.5t638 -202.5q255 0 441 92t258 209h180q-83 -170 -308.5 -309t-574.5 -139q-471 0 -740 240.5t-269 658.5zM682 434 q0 -129 61.5 -209t159.5 -80q78 0 166 70.5t140.5 191t52.5 238.5q0 133 -64.5 212t-171.5 79q-130 0 -237 -154.5t-107 -347.5z" />
<glyph unicode="A" horiz-adv-x="854" d="M100 0l275 1274h141l277 -1274h-166l-47 252h-269l-47 -252h-164zM336 381h221l-111 604h-4z" />
<glyph unicode="B" d="M141 0v1274h201q164 0 242 -80.5t78 -251.5q0 -242 -185 -307q201 -41 201 -318q0 -152 -73 -234.5t-208 -82.5h-256zM311 129q102 2 145.5 44.5t43.5 166.5q0 132 -44 182t-145 51v-444zM311 700q98 3 142.5 51t44.5 167q0 129 -38.5 177t-148.5 48v-443z" />
<glyph unicode="C" d="M135 602q0 410 112.5 552t272.5 142q60 0 148 -20v-156q-58 23 -109 23q-100 0 -171 -101.5t-71 -400.5q0 -178 15.5 -278.5t71.5 -160t141 -59.5q50 0 123 31v-151q-77 -37 -154 -37q-154 0 -266.5 119t-112.5 497z" />
<glyph unicode="D" horiz-adv-x="854" d="M147 0v1274h248q176 0 277.5 -132.5t101.5 -498.5q0 -353 -89 -498t-320 -145h-218zM319 129q108 0 164 40t83.5 149t27.5 327q0 278 -51.5 388t-200.5 110h-23v-1014z" />
<glyph unicode="E" horiz-adv-x="662" d="M141 0v1274h453v-146h-283v-403h262v-145h-262v-439h291v-141h-461z" />
<glyph unicode="F" horiz-adv-x="662" d="M139 0v1274h463v-146h-293v-401h262v-145h-262v-582h-170z" />
<glyph unicode="G" horiz-adv-x="856" d="M129 596q0 42 9 223.5t26.5 246t58.5 120t104 83t148 27.5q120 0 207 -72.5t96 -191.5l-162 -59q-20 184 -141 184q-93 0 -129.5 -95.5t-36.5 -316.5v-65q0 -128 8 -244.5t15 -170.5t29 -86t46.5 -43t57.5 -11q62 0 96 38t47 109.5t13 243.5h-156v150h326v-215 q0 -220 -75 -341.5t-265 -121.5q-170 0 -246 125.5t-76 482.5z" />
<glyph unicode="H" horiz-adv-x="854" d="M141 0v1274h172v-496h265v496h172v-1274h-172v633h-265v-633h-172z" />
<glyph unicode="I" horiz-adv-x="469" d="M166 0v1274h172v-1274h-172z" />
<glyph unicode="J" horiz-adv-x="555" d="M53 6v156q89 -35 135 -35q48 0 75.5 34.5t27.5 94.5v1018h172v-1045q0 -247 -244 -247q-55 0 -166 24z" />
<glyph unicode="K" horiz-adv-x="854" d="M143 0v1274h174v-631h5l296 631h175l-310 -619l312 -655h-197l-276 647h-5v-647h-174z" />
<glyph unicode="L" horiz-adv-x="662" d="M137 0v1274h172v-1131h289v-143h-461z" />
<glyph unicode="M" horiz-adv-x="1044" d="M92 0l125 1274h148l178 -893h4l182 893h148l120 -1274h-159l-64 815h-4l-174 -815h-107l-165 815h-5l-67 -815h-160z" />
<glyph unicode="N" horiz-adv-x="854" d="M125 0v1274h137l326 -875h4v875h151v-1274h-135l-325 874h-4v-874h-154z" />
<glyph unicode="O" horiz-adv-x="938" d="M131 641q0 415 81.5 537t268.5 122q214 0 284.5 -136.5t70.5 -491.5q0 -318 -31.5 -441t-109 -181t-210.5 -58q-137 0 -210 53.5t-108.5 173.5t-35.5 422zM311 647q0 -271 30 -395.5t144 -124.5q70 0 120 70t50 387v47q0 363 -42.5 448.5t-127.5 85.5q-100 0 -137 -102.5 t-37 -345.5v-70z" />
<glyph unicode="P" d="M131 0v1274h281q274 0 274 -361q0 -144 -48.5 -226.5t-121 -104t-213.5 -23.5v-559h-172zM303 692q109 0 156 44t47 177q0 134 -41 182t-162 48v-451z" />
<glyph unicode="Q" horiz-adv-x="938" d="M133 586q0 312 30.5 452.5t110.5 201t222 60.5q181 0 262.5 -124.5t81.5 -540.5q0 -439 -97 -547l95 -131l-95 -70l-92 125q-109 -26 -176 -26q-194 0 -268 135t-74 465zM315 713q0 -423 40.5 -505.5t121.5 -82.5q42 0 78 14l-117 158l99 72l90 -127q30 64 30 376 q0 369 -40 456t-130 87q-101 0 -136.5 -102t-35.5 -346z" />
<glyph unicode="R" d="M137 0v1274h238q291 0 291 -326q0 -148 -43 -223t-140 -113l219 -612h-178l-200 598h-15v-598h-172zM309 715q100 2 144.5 47.5t44.5 165.5q0 115 -40.5 164t-138.5 49h-10v-426z" />
<glyph unicode="S" horiz-adv-x="662" d="M84 981q0 139 81 226t210 87q90 0 182 -45v-139q-84 45 -151 45t-114.5 -48t-47.5 -116q0 -48 28 -102.5t127.5 -174t152 -207.5t52.5 -202q0 -142 -85.5 -230.5t-223.5 -88.5q-76 0 -186 45v153q3 -1 6 -3q15 -11 63 -33.5t94 -22.5q75 0 123.5 50t48.5 128 q0 54 -24.5 100t-89.5 125l-115 141q-67 82 -99 150t-32 162z" />
<glyph unicode="T" horiz-adv-x="662" d="M66 1128v146h561v-146h-195v-1128h-172v1128h-194z" />
<glyph unicode="U" horiz-adv-x="854" d="M145 299v973h170v-901q0 -145 25 -200.5t109 -55.5t105 58.5t21 207.5v891h170v-971q0 -319 -286 -319q-314 0 -314 317z" />
<glyph unicode="V" d="M59 1274h166l160 -964l172 964h164l-268 -1274h-136z" />
<glyph unicode="W" horiz-adv-x="1130" d="M78 1274h149l142 -881h4l153 881h117l145 -877h5l145 877h152l-220 -1274h-137l-153 899h-5l-149 -899h-135z" />
<glyph unicode="X" d="M49 0l252 657l-233 617h165l152 -400l154 400h168l-238 -619l246 -655h-162l-168 436l-170 -436h-166z" />
<glyph unicode="Y" d="M59 1274h170l158 -572h4l160 572h170l-248 -731v-543h-172v535z" />
<glyph unicode="Z" d="M80 0l403 1128h-354v146h565l-405 -1131h366v-143h-575z" />
<glyph unicode="[" horiz-adv-x="469" d="M141 -360v1654h295v-116h-164v-1420h164v-118h-295z" />
<glyph unicode="\" horiz-adv-x="555" d="M29 1317h77l386 -1702h-74z" />
<glyph unicode="]" horiz-adv-x="469" d="M68 1176v116h294v-1654h-292v118h159v1420h-161z" />
<glyph unicode="^" horiz-adv-x="961" d="M53 690l355 801h145l354 -801h-182l-246 598l-241 -598h-185z" />
<glyph unicode="_" horiz-adv-x="1024" d="M-14 -152h1052v-102h-1052v102z" />
<glyph unicode="`" horiz-adv-x="682" d="M88 1264h242l135 -279h-146z" />
<glyph unicode="a" d="M109 424q0 246 49 354.5t168 108.5q56 0 90.5 -26t70.5 -83h5v96h163v-874h-163v106h-5q-63 -118 -163 -118q-85 0 -150 79.5t-65 356.5zM285 471q0 -185 18.5 -262.5t83.5 -77.5q63 0 84 75t21 255q0 158 -19 222.5t-80 64.5t-84.5 -60t-23.5 -217z" />
<glyph unicode="b" d="M127 0v1319h164v-561h4q46 131 170 131q92 0 151.5 -86t59.5 -332q0 -300 -53 -390.5t-164 -90.5q-106 0 -166 131h-4v-121h-162zM289 481q0 -191 22.5 -271.5t85.5 -80.5q57 0 81 65.5t24 211.5q0 186 -21.5 265t-87.5 79q-56 0 -80 -64t-24 -205z" />
<glyph unicode="c" horiz-adv-x="555" d="M104 444q0 251 79 348t184 97q52 0 141 -31v-139q-58 26 -92 26q-71 0 -103 -76.5t-32 -240.5q0 -297 129 -297q37 0 100 31v-135q-81 -39 -148 -39q-134 0 -196 110t-62 346z" />
<glyph unicode="d" d="M113 408q0 205 18 293.5t69 138t130 49.5q103 0 162 -117h4v547h163v-1319h-161v117h-4q-59 -129 -168 -129q-64 0 -117.5 43t-74.5 120t-21 257zM287 442q0 -170 21.5 -242.5t82.5 -72.5q60 0 83.5 75.5t23.5 248.5q0 162 -20.5 229.5t-82.5 67.5t-85 -71t-23 -235z" />
<glyph unicode="e" d="M117 418q0 469 282 469q107 0 183.5 -81t76.5 -335v-63h-368q0 -142 19.5 -214.5t92.5 -72.5q56 0 76 42t21 132h149q-7 -307 -260 -307q-272 0 -272 430zM291 535h203q0 130 -21 186.5t-76 56.5q-65 0 -85.5 -59.5t-20.5 -183.5z" />
<glyph unicode="f" horiz-adv-x="469" d="M59 750v124h88v187q0 256 195 256q60 0 104 -12v-146q-13 12 -57 12q-80 0 -80 -122v-175h135v-124h-135v-750h-162v750h-88z" />
<glyph unicode="g" d="M116 -109h157q8 -143 111 -143q106 0 106 107v262h-4q-48 -129 -170 -129q-84 0 -142 81t-58 386q0 275 53 353.5t149 78.5q66 0 99.5 -24t68.5 -77h4v88h162v-985q0 -136 -63 -198t-201 -62q-147 0 -210 56t-62 206zM288 485q0 -188 17.5 -267t86.5 -79q57 0 77.5 62.5 t20.5 210.5q0 211 -18.5 277.5t-79.5 66.5q-56 0 -80 -64.5t-24 -206.5z" />
<glyph unicode="h" d="M125 0v1317h166v-516q85 86 180 86q186 0 186 -201v-686h-161v635q0 125 -101 125q-104 0 -104 -139v-621h-166z" />
<glyph unicode="i" horiz-adv-x="385" d="M121 1141q0 36 26.5 63t63.5 27t63.5 -27t26.5 -63q0 -37 -26.5 -63.5t-63.5 -26.5q-38 0 -64 26.5t-26 63.5zM129 0v874h162v-874h-162z" />
<glyph unicode="j" horiz-adv-x="385" d="M115 1141q0 37 27 63.5t65 26.5q37 0 63.5 -27t26.5 -63q0 -37 -26.5 -63.5t-63.5 -26.5q-38 0 -65 26.5t-27 63.5zM127 -387v1261h162v-1261h-162z" />
<glyph unicode="k" d="M127 0v1317h164v-817h4l217 374h170l-221 -395l250 -479h-172l-244 467h-4v-467h-164z" />
<glyph unicode="l" horiz-adv-x="385" d="M129 0v1319h164v-1319h-164z" />
<glyph unicode="m" horiz-adv-x="1130" d="M131 0v874h166v-79q78 94 182 94q117 0 170 -109q82 107 197 107q184 0 184 -211v-676h-164v637q0 127 -98 127q-106 0 -106 -152v-612h-162v649q0 49 -27.5 82t-69.5 33q-108 0 -108 -139v-625h-164z" />
<glyph unicode="n" d="M121 0v877h166v-84h4q63 96 170 96q190 0 190 -207v-682h-162v635q0 129 -102 129q-47 0 -74.5 -34.5t-27.5 -94.5v-635h-164z" />
<glyph unicode="o" d="M106 432q0 277 80 367t199 90h4q125 0 201 -95t76 -368q0 -256 -79.5 -347t-195.5 -91q-145 0 -215 109t-70 335zM283 504q0 -265 24.5 -324t81.5 -59q61 0 82 59.5t21 204.5q0 223 -21 296t-84 73q-60 0 -82 -57t-22 -193z" />
<glyph unicode="p" d="M133 -387v1261h160v-96h4q40 57 77.5 83t88.5 26q117 0 166 -104t49 -339q0 -265 -51.5 -361.5t-161.5 -96.5q-48 0 -81 21.5t-83 88.5h-4v-483h-164zM295 473q0 -186 16.5 -266t83.5 -80q59 0 84 68.5t25 222.5q0 179 -23 254.5t-86 75.5q-58 0 -79 -62.5t-21 -212.5z " />
<glyph unicode="q" d="M113 408q0 117 13 240.5t68 181t136 57.5q105 0 164 -121h4v108h161v-1261h-163v489h-4q-61 -116 -164 -116q-88 0 -151.5 78.5t-63.5 343.5zM289 471q0 -187 20 -265.5t84 -78.5q59 0 82 65t23 214q0 185 -17.5 263.5t-85.5 78.5h-2q-55 0 -79.5 -66.5t-24.5 -210.5z " />
<glyph unicode="r" horiz-adv-x="555" d="M121 0v874h166v-129h4q72 142 194 142l11 -2v-140q-113 -3 -161 -43t-48 -178v-524h-166z" />
<glyph unicode="s" horiz-adv-x="647" d="M142 651q0 103 68.5 171.5t170.5 68.5q63 0 158 -33v-133q-75 31 -129 31q-52 0 -83.5 -26t-31.5 -71q0 -36 26.5 -71t109 -106.5t117 -128t34.5 -124.5q0 -103 -70 -171t-178 -68q-70 0 -164 37v135q91 -37 154 -37q47 0 73.5 25.5t26.5 68.5q0 40 -35 85t-122 115 q-125 101 -125 232z" />
<glyph unicode="t" horiz-adv-x="469" d="M61 745v129h105v238h164v-238h106v-129h-106v-745h-164v745h-105z" />
<glyph unicode="u" d="M123 268v609h162v-611q0 -145 104 -145q55 0 77.5 37t22.5 123v596h162v-601q0 -153 -61 -220.5t-201 -67.5t-203 66.5t-63 213.5z" />
<glyph unicode="v" d="M90 874h164l134 -617l134 617h160l-238 -874h-110z" />
<glyph unicode="w" horiz-adv-x="1044" d="M109 874h151l123 -583h4l117 583h84l123 -585h4l116 585h154l-215 -874h-115l-108 535h-4l-109 -535h-108z" />
<glyph unicode="x" d="M66 0l235 446l-223 428h166l141 -266l141 266h168l-225 -425l238 -449h-164l-158 289l-154 -289h-165z" />
<glyph unicode="y" d="M66 874h163l144 -602h4l178 602h156l-408 -1261h-143l143 465z" />
<glyph unicode="z" horiz-adv-x="662" d="M84 0l305 748h-293v126h518l-311 -749h281v-125h-500z" />
<glyph unicode="{" horiz-adv-x="684" d="M57 385v164q67 0 120 36.5t70 108t18 295t25.5 278.5t77.5 107.5t214 52.5h55v-155h-31q-109 0 -140.5 -39.5t-31.5 -167.5v-147q0 -206 -45 -303.5t-164 -147.5q113 -46 161 -144t48 -309v-145q0 -127 30.5 -167t141.5 -40h31v-156h-55q-163 0 -215.5 54t-76.5 109.5 t-25 278t-18.5 294t-70.5 107.5t-119 36z" />
<glyph unicode="|" horiz-adv-x="1079" d="M473 -276v1701h133v-1701h-133z" />
<glyph unicode="}" horiz-adv-x="684" d="M47 -338h31q109 0 140.5 39.5t31.5 167.5v145q0 211 48 309t161 144q-131 59 -170 162t-39 289v147q0 128 -31.5 167.5t-140.5 39.5h-31v155h55q163 0 215.5 -53.5t76.5 -109t25 -278t18.5 -294t70.5 -107.5t119 -36v-164q-67 0 -120 -37t-70 -108t-18 -293t-27 -280 t-77.5 -109.5t-212.5 -51.5h-55v156z" />
<glyph unicode="~" horiz-adv-x="1343" d="M131 598v143q157 125 293 125q60 0 121.5 -21t187.5 -80.5t191 -59.5q130 0 288 141v-146q-152 -127 -284 -127q-72 0 -133.5 23t-183 81t-189.5 58q-128 0 -291 -137z" />
<glyph unicode="&#xa1;" horiz-adv-x="385" d="M117 1020q0 38 26.5 65t63.5 27q39 0 66.5 -26.5t27.5 -63.5q0 -38 -26.5 -65t-63.5 -27q-41 0 -67.5 25.5t-26.5 64.5zM127 -168v971h162v-971h-162z" />
<glyph unicode="&#xa2;" horiz-adv-x="555" d="M104 426q0 220 49.5 319t163.5 138v164h97v-162q47 -8 94 -29v-139q-62 28 -92 28q-135 0 -135 -313q0 -297 127 -297q39 0 100 35v-135q-46 -26 -96 -41v-209h-97v211q-113 21 -162 126.5t-49 303.5z" />
<glyph unicode="&#xa3;" d="M55 84q0 58 41 96.5t103 38.5h32v29q0 117 -41 321h-131v125h111q0 16 -14.5 129.5t-14.5 165.5q0 149 69.5 228t199.5 79q268 0 268 -309h-162q-7 162 -100 162q-103 0 -103 -158q0 -23 33 -297h143v-125h-129q9 -77 9 -141q0 -159 -27 -235q89 -41 139 -41q86 0 86 139 h154v-6q0 -145 -58.5 -222t-166.5 -77q-78 0 -209 69q-51 -69 -127 -69q-47 0 -76 27t-29 71z" />
<glyph unicode="&#xa4;" horiz-adv-x="1401" d="M195 264l127 127q-47 65 -69 119t-22 154q0 97 22 150.5t69 121.5l-127 125l90 90l127 -127q66 47 120 68.5t152 21.5t151.5 -21.5t120.5 -68.5l127 127l88 -90l-127 -127q47 -67 69 -120t22 -150q0 -100 -22 -153t-69 -120l127 -127l-88 -88l-127 125 q-66 -47 -120 -68.5t-152 -21.5q-100 0 -153.5 21.5t-118.5 68.5l-127 -125zM358 664q0 -135 96 -230.5t230 -95.5q133 0 228.5 95.5t95.5 230.5q0 133 -95.5 228t-228.5 95q-134 0 -230 -95t-96 -228z" />
<glyph unicode="&#xa5;" d="M59 537v86h217l-94 282h-123v86h95l-95 281h170l78 -281h164l80 283h170l-96 -283h96v-86h-125l-96 -282h221v-86h-248v-537h-168v537h-246zM332 905l53 -205h4l57 205h-114z" />
<glyph unicode="&#xa6;" horiz-adv-x="1079" d="M473 -276v722h133v-722h-133zM473 700v725h133v-725h-133z" />
<glyph unicode="&#xa7;" horiz-adv-x="707" d="M160 455q0 94 34.5 167.5t110.5 159.5q-60 87 -88.5 150.5t-28.5 144.5q0 105 56 170.5t145 65.5q95 0 151.5 -70.5t61.5 -202.5h-143q-3 127 -64 127q-27 0 -44 -22t-17 -58q0 -105 108 -230.5t143.5 -201t35.5 -170.5q0 -208 -144 -338q63 -83 91 -146t28 -146 q0 -109 -57 -174.5t-152 -65.5q-195 0 -205 270h140q0 -68 14.5 -97.5t50.5 -29.5q26 0 44 25.5t18 62.5q0 51 -25.5 100.5t-107 151t-119 185t-37.5 172.5zM303 481q0 -66 25 -121t80 -129q71 97 71 222q0 147 -102 245q-74 -113 -74 -217z" />
<glyph unicode="&#xa8;" horiz-adv-x="682" d="M33 1106q0 43 31 73.5t75 30.5q43 0 74 -30.5t31 -73.5q0 -44 -31 -75.5t-74 -31.5q-44 0 -75 31.5t-31 75.5zM438 1106q0 43 31 73.5t74 30.5q44 0 75 -30.5t31 -73.5q0 -44 -31 -75.5t-75 -31.5q-43 0 -74 31.5t-31 75.5z" />
<glyph unicode="&#xa9;" horiz-adv-x="1511" d="M0 737q0 311 222 532.5t534 221.5q310 0 531.5 -221.5t221.5 -532.5t-221.5 -533t-531.5 -222q-312 0 -534 221.5t-222 533.5zM125 737q0 -260 185.5 -445.5t445.5 -185.5q258 0 443 186t185 445t-185 444t-443 185q-260 0 -445.5 -185t-185.5 -444zM360 748 q0 186 110.5 298.5t293.5 112.5q130 0 218.5 -60.5t121.5 -174.5l-119 -29q-59 154 -233 154q-115 0 -185.5 -88t-70.5 -232t69 -225.5t191 -81.5q85 0 151 51t90 141l123 -36q-32 -130 -130.5 -202.5t-231.5 -72.5q-185 0 -291.5 118.5t-106.5 326.5z" />
<glyph unicode="&#xaa;" horiz-adv-x="492" d="M74 1006q0 154 32 224t105 70q37 0 58.5 -13.5t49.5 -57.5h5v63h106v-567h-106v70h-5q-33 -49 -53 -63.5t-53 -14.5q-75 0 -107 68.5t-32 220.5zM190 1030q0 -121 12.5 -171t51.5 -50t55.5 42t16.5 136q0 119 -11.5 171t-58.5 52q-37 0 -51.5 -41t-14.5 -139z" />
<glyph unicode="&#xab;" d="M96 551l103 475h170l-103 -469l101 -473h-170zM397 551l103 475h170l-105 -469l101 -473h-168z" />
<glyph unicode="&#xac;" horiz-adv-x="1366" d="M139 844v131h1088v-619h-131v488h-957z" />
<glyph unicode="&#xad;" horiz-adv-x="469" d="M88 383v125h326v-125h-326z" />
<glyph unicode="&#xae;" horiz-adv-x="1511" d="M0 737q0 311 222 532.5t534 221.5q310 0 531.5 -221.5t221.5 -532.5t-221.5 -533t-531.5 -222q-312 0 -534 221.5t-222 533.5zM125 737q0 -260 185.5 -445.5t445.5 -185.5q258 0 443 186t185 445t-185 444t-443 185q-260 0 -445.5 -185t-185.5 -444zM424 319v811h278 q133 0 194.5 -16.5t108 -72.5t46.5 -123q0 -96 -62.5 -161t-169.5 -73v-4q76 -22 189 -203l98 -158h-160l-72 127q-69 123 -113 170.5t-128 47.5h-78v-345h-131zM555 776h160q102 0 149 29.5t47 93.5q0 68 -46.5 94.5t-159.5 26.5h-150v-244z" />
<glyph unicode="&#xaf;" horiz-adv-x="1024" d="M-14 1425v103h1052v-103h-1052z" />
<glyph unicode="&#xb0;" horiz-adv-x="819" d="M133 1214q0 114 81 195.5t196 81.5q114 0 195 -81t81 -196q0 -114 -81 -196t-195 -82q-115 0 -196 82t-81 196zM242 1214q0 -70 49.5 -120t118.5 -50q70 0 119 50t49 120t-49.5 119t-118.5 49q-70 0 -119 -49t-49 -119z" />
<glyph unicode="&#xb1;" horiz-adv-x="1366" d="M139 -45v131h1088v-131h-1088zM139 764v131h477v479h132v-479h479v-131h-479v-477h-132v477h-477z" />
<glyph unicode="&#xb2;" horiz-adv-x="532" d="M74 483l51 92q217 391 217 517q0 37 -19.5 60.5t-50.5 23.5q-43 0 -56 -34.5t-13 -119.5h-123q2 139 48.5 204.5t152.5 65.5q87 0 137.5 -47.5t50.5 -128.5q0 -184 -207 -524h180v-109h-368z" />
<glyph unicode="&#xb3;" horiz-adv-x="532" d="M61 686h111q2 -102 72 -102q80 0 80 131q0 77 -23.5 103t-95.5 26v117q61 0 89 16t28 90q0 119 -66 119q-36 0 -51 -25.5t-15 -83.5h-114q4 219 178 219q201 0 201 -206q0 -82 -21.5 -123t-71.5 -66q51 -30 72 -67.5t21 -110.5q0 -250 -203 -250q-104 0 -147 51.5 t-44 161.5z" />
<glyph unicode="&#xb4;" horiz-adv-x="682" d="M223 985l133 279h236l-221 -279h-148z" />
<glyph unicode="&#xb5;" horiz-adv-x="1139" d="M139 -408v1469h178v-516q0 -166 23 -240t83.5 -121t135.5 -47q85 0 150 46.5t88.5 119.5t23.5 238v520h176v-1061h-159v125h-4q-49 -79 -108 -114.5t-159 -35.5q-86 0 -140 31t-105 100h-5v-514h-178z" />
<glyph unicode="&#xb6;" horiz-adv-x="1102" d="M-4 1051q0 101 39 185.5t106.5 136.5t142 72.5t185.5 20.5h633v-174h-144v-1700h-170v1700h-223v-1700h-164v1045q-192 12 -298.5 124t-106.5 290z" />
<glyph unicode="&#xb7;" horiz-adv-x="598" d="M209 670q0 44 31 75t75 31q45 0 76 -31t31 -75q0 -45 -31 -76t-76 -31q-44 0 -75 31t-31 76z" />
<glyph unicode="&#x2219;" horiz-adv-x="598" d="M209 670q0 44 31 75t75 31q45 0 76 -31t31 -75q0 -45 -31 -76t-76 -31q-44 0 -75 31t-31 76z" />
<glyph unicode="&#xb8;" horiz-adv-x="682" d="M106 -410l11 117h22l56 -4q178 0 178 76q0 67 -142 67h-16l53 177h133l-32 -107q81 -10 125.5 -50t44.5 -97q0 -86 -80.5 -138.5t-216.5 -52.5q-59 0 -136 12z" />
<glyph unicode="&#xb9;" horiz-adv-x="532" d="M154 1190v102h188v-807h-121v705h-67z" />
<glyph unicode="&#xba;" horiz-adv-x="492" d="M78 1020q0 280 182 280q96 0 138 -70.5t42 -228.5q0 -147 -44 -216.5t-138 -69.5t-137 73.5t-43 231.5zM190 1044q0 -131 11 -187t55 -56t58 43.5t14 148.5q0 138 -13.5 179.5t-58.5 41.5q-37 0 -51.5 -39.5t-14.5 -130.5z" />
<glyph unicode="&#xbb;" d="M96 84l101 475l-99 467h166l103 -471l-103 -471h-168zM395 84l103 475l-103 467h168l101 -469l-101 -473h-168z" />
<glyph unicode="&#xbc;" horiz-adv-x="1343" d="M176 1190v102h188v-807h-121v705h-67zM186 -90l895 1405h131l-895 -1405h-131zM884 129v115l217 493h134v-495h49v-113h-51v-197h-119v197h-230zM991 244h123v280h-4z" />
<glyph unicode="&#xbd;" horiz-adv-x="1343" d="M170 -90l895 1405h131l-895 -1405h-131zM174 1190v102h188v-807h-121v705h-67zM900 -70l51 92q217 391 217 517q0 37 -19.5 60.5t-50.5 23.5q-43 0 -56 -34.5t-13 -119.5h-123q2 139 48.5 204.5t152.5 65.5q87 0 137.5 -47.5t50.5 -128.5q0 -184 -207 -524h180v-109h-368 z" />
<glyph unicode="&#xbe;" horiz-adv-x="1343" d="M84 686h111q2 -102 72 -102q80 0 80 131q0 77 -23.5 103t-95.5 26v117q61 0 89 16t28 90q0 119 -66 119q-36 0 -51 -25.5t-15 -83.5h-114q4 219 178 219q201 0 201 -206q0 -82 -21.5 -123t-71.5 -66q51 -30 72 -67.5t21 -110.5q0 -250 -203 -250q-104 0 -147 51.5 t-44 161.5zM193 -90l895 1405h131l-895 -1405h-131zM885 129v115l217 493h134v-495h49v-113h-51v-197h-119v197h-230zM992 244h123v280h-4z" />
<glyph unicode="&#xbf;" horiz-adv-x="662" d="M106 125q0 187 16 257t58 107.5t115 45.5v268h147v-357q-109 -3 -147.5 -52t-38.5 -201v-52q0 -98 6.5 -129t28.5 -50t59 -19q45 0 64.5 40t19.5 130v14h146q0 -138 -20.5 -192.5t-69 -85.5t-142.5 -31q-110 0 -160.5 42.5t-66 96t-15.5 168.5zM276 1022q0 38 27 65 t66 27t66.5 -27t27.5 -65t-28 -65t-66 -27h-2q-38 0 -64.5 26.5t-26.5 65.5z" />
<glyph unicode="&#xc0;" horiz-adv-x="854" d="M100 0l275 1274h141l277 -1274h-166l-47 252h-269l-47 -252h-164zM174 1651h242l135 -279h-146zM336 381h221l-111 604h-4z" />
<glyph unicode="&#xc1;" horiz-adv-x="854" d="M100 0l275 1274h141l277 -1274h-166l-47 252h-269l-47 -252h-164zM309 1372l133 279h236l-221 -279h-148zM336 381h221l-111 604h-4z" />
<glyph unicode="&#xc2;" horiz-adv-x="854" d="M100 0l275 1274h141l277 -1274h-166l-47 252h-269l-47 -252h-164zM111 1372l217 279h190l225 -279h-204l-109 170l-115 -170h-204zM336 381h221l-111 604h-4z" />
<glyph unicode="&#xc3;" horiz-adv-x="854" d="M92 1397v12q0 93 58 154t147 61q46 0 138 -42t124 -42q36 0 51 21t21 67h131q-4 -111 -55.5 -170t-139.5 -59q-67 0 -149 47q-81 45 -117 45q-34 0 -55 -24t-21 -62v-8h-133zM100 0l275 1274h141l277 -1274h-166l-47 252h-269l-47 -252h-164zM336 381h221l-111 604h-4z " />
<glyph unicode="&#xc4;" horiz-adv-x="854" d="M100 0l275 1274h141l277 -1274h-166l-47 252h-269l-47 -252h-164zM135 1493q0 43 31 73.5t75 30.5q43 0 74 -30.5t31 -73.5q0 -44 -31 -75.5t-74 -31.5q-44 0 -75 31.5t-31 75.5zM336 381h221l-111 604h-4zM540 1493q0 43 31 73.5t74 30.5q44 0 75 -30.5t31 -73.5 q0 -44 -31 -75.5t-75 -31.5q-43 0 -74 31.5t-31 75.5z" />
<glyph unicode="&#xc5;" horiz-adv-x="854" d="M100 0l275 1274h141l277 -1274h-166l-47 252h-269l-47 -252h-164zM248 1515q0 72 53.5 125.5t126.5 53.5q75 0 127.5 -53.5t52.5 -129.5t-52.5 -130t-127.5 -54t-127.5 55t-52.5 133zM324 1515q0 -47 31 -79.5t75 -32.5q43 0 75 32t32 76q0 46 -31 77.5t-76 31.5 q-43 0 -74.5 -31t-31.5 -74zM336 381h221l-111 604h-4z" />
<glyph unicode="&#xc6;" horiz-adv-x="1044" d="M74 0l364 1274h557v-144h-284v-403h262v-147h-262v-435h290v-145h-464v254h-226l-63 -254h-174zM346 383h193v745h-4z" />
<glyph unicode="&#xc7;" d="M135 602q0 410 112.5 552t272.5 142q60 0 148 -20v-156q-58 23 -109 23q-100 0 -171 -101.5t-71 -400.5q0 -178 15.5 -278.5t71.5 -160t141 -59.5q50 0 123 31v-151q-77 -37 -154 -37q-154 0 -266.5 119t-112.5 497zM239 -410l11 117h22l56 -4q178 0 178 76q0 67 -142 67 h-16l53 177h133l-32 -107q81 -10 125.5 -50t44.5 -97q0 -86 -80.5 -138.5t-216.5 -52.5q-59 0 -136 12z" />
<glyph unicode="&#xc8;" horiz-adv-x="662" d="M134 1651h242l135 -279h-146zM141 0v1274h453v-146h-283v-403h262v-145h-262v-439h291v-141h-461z" />
<glyph unicode="&#xc9;" horiz-adv-x="662" d="M141 0v1274h453v-146h-283v-403h262v-145h-262v-439h291v-141h-461zM213 1372l133 279h236l-221 -279h-148z" />
<glyph unicode="&#xca;" horiz-adv-x="662" d="M42 1372l217 279h190l225 -279h-204l-109 170l-115 -170h-204zM141 0v1274h453v-146h-283v-403h262v-145h-262v-439h291v-141h-461z" />
<glyph unicode="&#xcb;" horiz-adv-x="662" d="M55 1493q0 43 31 73.5t75 30.5q43 0 74 -30.5t31 -73.5q0 -44 -31 -75.5t-74 -31.5q-44 0 -75 31.5t-31 75.5zM141 0v1274h453v-146h-283v-403h262v-145h-262v-439h291v-141h-461zM460 1493q0 43 31 73.5t74 30.5q44 0 75 -30.5t31 -73.5q0 -44 -31 -75.5t-75 -31.5 q-43 0 -74 31.5t-31 75.5z" />
<glyph unicode="&#xcc;" horiz-adv-x="469" d="M-18 1651h242l135 -279h-146zM166 0v1274h172v-1274h-172z" />
<glyph unicode="&#xcd;" horiz-adv-x="469" d="M117 1372l133 279h236l-221 -279h-148zM166 0v1274h172v-1274h-172z" />
<glyph unicode="&#xce;" horiz-adv-x="469" d="M-82 1372l217 279h190l225 -279h-204l-109 170l-115 -170h-204zM166 0v1274h172v-1274h-172z" />
<glyph unicode="&#xcf;" horiz-adv-x="469" d="M-74 1493q0 43 31 73.5t75 30.5q43 0 74 -30.5t31 -73.5q0 -44 -31 -75.5t-74 -31.5q-44 0 -75 31.5t-31 75.5zM166 0v1274h172v-1274h-172zM331 1493q0 43 31 73.5t74 30.5q44 0 75 -30.5t31 -73.5q0 -44 -31 -75.5t-75 -31.5q-43 0 -74 31.5t-31 75.5z" />
<glyph unicode="&#xd0;" horiz-adv-x="854" d="M51 598v70h101v606h243q176 0 277.5 -132.5t101.5 -498.5q0 -353 -89 -498t-320 -145h-213v598h-101zM319 129q108 0 164 40t83.5 149t27.5 327q0 278 -51.5 388t-200.5 110h-23v-475h132v-70h-132v-469z" />
<glyph unicode="&#xd1;" horiz-adv-x="854" d="M92 1397v12q0 93 58 154t147 61q46 0 138 -42t124 -42q36 0 51 21t21 67h131q-4 -111 -55.5 -170t-139.5 -59q-67 0 -149 47q-81 45 -117 45q-34 0 -55 -24t-21 -62v-8h-133zM125 0v1274h137l326 -875h4v875h151v-1274h-135l-325 874h-4v-874h-154z" />
<glyph unicode="&#xd2;" horiz-adv-x="938" d="M131 641q0 415 81.5 537t268.5 122q214 0 284.5 -136.5t70.5 -491.5q0 -318 -31.5 -441t-109 -181t-210.5 -58q-137 0 -210 53.5t-108.5 173.5t-35.5 422zM217 1651h242l135 -279h-146zM311 647q0 -271 30 -395.5t144 -124.5q70 0 120 70t50 387v47q0 363 -42.5 448.5 t-127.5 85.5q-100 0 -137 -102.5t-37 -345.5v-70z" />
<glyph unicode="&#xd3;" horiz-adv-x="938" d="M131 641q0 415 81.5 537t268.5 122q214 0 284.5 -136.5t70.5 -491.5q0 -318 -31.5 -441t-109 -181t-210.5 -58q-137 0 -210 53.5t-108.5 173.5t-35.5 422zM311 647q0 -271 30 -395.5t144 -124.5q70 0 120 70t50 387v47q0 363 -42.5 448.5t-127.5 85.5q-100 0 -137 -102.5 t-37 -345.5v-70zM352 1372l133 279h236l-221 -279h-148z" />
<glyph unicode="&#xd4;" horiz-adv-x="938" d="M131 641q0 415 81.5 537t268.5 122q214 0 284.5 -136.5t70.5 -491.5q0 -318 -31.5 -441t-109 -181t-210.5 -58q-137 0 -210 53.5t-108.5 173.5t-35.5 422zM154 1372l217 279h190l225 -279h-204l-109 170l-115 -170h-204zM311 647q0 -271 30 -395.5t144 -124.5 q70 0 120 70t50 387v47q0 363 -42.5 448.5t-127.5 85.5q-100 0 -137 -102.5t-37 -345.5v-70z" />
<glyph unicode="&#xd5;" horiz-adv-x="938" d="M131 641q0 415 81.5 537t268.5 122q214 0 284.5 -136.5t70.5 -491.5q0 -318 -31.5 -441t-109 -181t-210.5 -58q-137 0 -210 53.5t-108.5 173.5t-35.5 422zM135 1397v12q0 93 58 154t147 61q46 0 138 -42t124 -42q36 0 51 21t21 67h131q-4 -111 -55.5 -170t-139.5 -59 q-67 0 -149 47q-81 45 -117 45q-34 0 -55 -24t-21 -62v-8h-133zM311 647q0 -271 30 -395.5t144 -124.5q70 0 120 70t50 387v47q0 363 -42.5 448.5t-127.5 85.5q-100 0 -137 -102.5t-37 -345.5v-70z" />
<glyph unicode="&#xd6;" horiz-adv-x="938" d="M131 641q0 415 81.5 537t268.5 122q214 0 284.5 -136.5t70.5 -491.5q0 -318 -31.5 -441t-109 -181t-210.5 -58q-137 0 -210 53.5t-108.5 173.5t-35.5 422zM174 1493q0 43 31 73.5t75 30.5q43 0 74 -30.5t31 -73.5q0 -44 -31 -75.5t-74 -31.5q-44 0 -75 31.5t-31 75.5z M311 647q0 -271 30 -395.5t144 -124.5q70 0 120 70t50 387v47q0 363 -42.5 448.5t-127.5 85.5q-100 0 -137 -102.5t-37 -345.5v-70zM579 1493q0 43 31 73.5t74 30.5q44 0 75 -30.5t31 -73.5q0 -44 -31 -75.5t-75 -31.5q-43 0 -74 31.5t-31 75.5z" />
<glyph unicode="&#xd7;" horiz-adv-x="1366" d="M184 1071l92 92l408 -409l410 409l92 -94l-408 -407l404 -406l-92 -92l-406 405l-405 -405l-93 92l406 406z" />
<glyph unicode="&#xd8;" horiz-adv-x="938" d="M125 586q0 233 22.5 397t102.5 237.5t242 73.5q83 0 121.5 -15t91.5 -48l32 76l64 -25l-47 -108q82 -112 82 -521q0 -320 -36.5 -443.5t-111 -174.5t-201.5 -51q-96 0 -139 14.5t-92 50.5l-41 -86l-61 29l53 121q-82 90 -82 473zM311 700l6 -317v-23h5l299 680 q-39 117 -138 117q-102 0 -137 -103t-35 -354zM340 236q40 -115 143 -115q94 0 132 96t38 311v179q0 103 -6 221h-4z" />
<glyph unicode="&#xd9;" horiz-adv-x="854" d="M145 299v973h170v-901q0 -145 25 -200.5t109 -55.5t105 58.5t21 207.5v891h170v-971q0 -319 -286 -319q-314 0 -314 317zM174 1651h242l135 -279h-146z" />
<glyph unicode="&#xda;" horiz-adv-x="854" d="M145 299v973h170v-901q0 -145 25 -200.5t109 -55.5t105 58.5t21 207.5v891h170v-971q0 -319 -286 -319q-314 0 -314 317zM309 1372l133 279h236l-221 -279h-148z" />
<glyph unicode="&#xdb;" horiz-adv-x="854" d="M111 1372l217 279h190l225 -279h-204l-109 170l-115 -170h-204zM145 299v973h170v-901q0 -145 25 -200.5t109 -55.5t105 58.5t21 207.5v891h170v-971q0 -319 -286 -319q-314 0 -314 317z" />
<glyph unicode="&#xdc;" horiz-adv-x="854" d="M139 1493q0 43 31 73.5t75 30.5q43 0 74 -30.5t31 -73.5q0 -44 -31 -75.5t-74 -31.5q-44 0 -75 31.5t-31 75.5zM145 299v973h170v-901q0 -145 25 -200.5t109 -55.5t105 58.5t21 207.5v891h170v-971q0 -319 -286 -319q-314 0 -314 317zM544 1493q0 43 31 73.5t74 30.5 q44 0 75 -30.5t31 -73.5q0 -44 -31 -75.5t-75 -31.5q-43 0 -74 31.5t-31 75.5z" />
<glyph unicode="&#xdd;" d="M59 1274h170l158 -572h4l160 572h170l-248 -731v-543h-172v535zM256 1372l133 279h236l-221 -279h-148z" />
<glyph unicode="&#xde;" d="M133 0v1274h168v-283h105q278 0 278 -356q0 -185 -78.5 -270.5t-247.5 -85.5h-57v-279h-168zM301 412h27q176 0 176 209q0 241 -152 241h-51v-450z" />
<glyph unicode="&#xdf;" d="M119 0v1077q0 118 68.5 181t197.5 63q136 0 197 -71t61 -228q0 -172 -131 -254q98 -56 129 -136t31 -224q0 -251 -59 -335.5t-154 -84.5q-42 0 -86 18v133h20q59 0 80 58.5t21 199.5q0 164 -27.5 223.5t-93.5 59.5v147q52 12 73 51t21 146q0 164 -90 164q-38 0 -64 -36 t-26 -87v-1065h-168z" />
<glyph unicode="&#xe0;" d="M109 424q0 246 49 354.5t168 108.5q56 0 90.5 -26t70.5 -83h5v96h163v-874h-163v106h-5q-63 -118 -163 -118q-85 0 -150 79.5t-65 356.5zM173 1264h242l135 -279h-146zM285 471q0 -185 18.5 -262.5t83.5 -77.5q63 0 84 75t21 255q0 158 -19 222.5t-80 64.5t-84.5 -60 t-23.5 -217z" />
<glyph unicode="&#xe1;" d="M109 424q0 246 49 354.5t168 108.5q56 0 90.5 -26t70.5 -83h5v96h163v-874h-163v106h-5q-63 -118 -163 -118q-85 0 -150 79.5t-65 356.5zM256 985l133 279h236l-221 -279h-148zM285 471q0 -185 18.5 -262.5t83.5 -77.5q63 0 84 75t21 255q0 158 -19 222.5t-80 64.5 t-84.5 -60t-23.5 -217z" />
<glyph unicode="&#xe2;" d="M89 985l217 279h190l225 -279h-204l-109 170l-115 -170h-204zM109 424q0 246 49 354.5t168 108.5q56 0 90.5 -26t70.5 -83h5v96h163v-874h-163v106h-5q-63 -118 -163 -118q-85 0 -150 79.5t-65 356.5zM285 471q0 -185 18.5 -262.5t83.5 -77.5q63 0 84 75t21 255 q0 158 -19 222.5t-80 64.5t-84.5 -60t-23.5 -217z" />
<glyph unicode="&#xe3;" d="M67 1010v12q0 93 58 154t147 61q46 0 138 -42t124 -42q36 0 51 21t21 67h131q-4 -111 -55.5 -170t-139.5 -59q-67 0 -149 47q-81 45 -117 45q-34 0 -55 -24t-21 -62v-8h-133zM109 424q0 246 49 354.5t168 108.5q56 0 90.5 -26t70.5 -83h5v96h163v-874h-163v106h-5 q-63 -118 -163 -118q-85 0 -150 79.5t-65 356.5zM285 471q0 -185 18.5 -262.5t83.5 -77.5q63 0 84 75t21 255q0 158 -19 222.5t-80 64.5t-84.5 -60t-23.5 -217z" />
<glyph unicode="&#xe4;" d="M82 1106q0 43 31 73.5t75 30.5q43 0 74 -30.5t31 -73.5q0 -44 -31 -75.5t-74 -31.5q-44 0 -75 31.5t-31 75.5zM109 424q0 246 49 354.5t168 108.5q56 0 90.5 -26t70.5 -83h5v96h163v-874h-163v106h-5q-63 -118 -163 -118q-85 0 -150 79.5t-65 356.5zM285 471 q0 -185 18.5 -262.5t83.5 -77.5q63 0 84 75t21 255q0 158 -19 222.5t-80 64.5t-84.5 -60t-23.5 -217zM487 1106q0 43 31 73.5t74 30.5q44 0 75 -30.5t31 -73.5q0 -44 -31 -75.5t-75 -31.5q-43 0 -74 31.5t-31 75.5z" />
<glyph unicode="&#xe5;" d="M109 424q0 246 49 354.5t168 108.5q56 0 90.5 -26t70.5 -83h5v96h163v-874h-163v106h-5q-63 -118 -163 -118q-85 0 -150 79.5t-65 356.5zM195 1128q0 72 53.5 125.5t126.5 53.5q75 0 127.5 -53.5t52.5 -129.5t-52.5 -130t-127.5 -54t-127.5 55t-52.5 133zM271 1128 q0 -47 31 -79.5t75 -32.5q43 0 75 32t32 76q0 46 -31 77.5t-76 31.5q-43 0 -74.5 -31t-31.5 -74zM285 471q0 -185 18.5 -262.5t83.5 -77.5q63 0 84 75t21 255q0 158 -19 222.5t-80 64.5t-84.5 -60t-23.5 -217z" />
<glyph unicode="&#xe6;" horiz-adv-x="1130" d="M109 432q0 208 27.5 292t79.5 123.5t108 39.5q99 0 168 -96h4v83h151v-55q76 68 150 68q82 0 142 -61.5t76.5 -144t18.5 -280.5h-370q0 -152 25 -218t87 -66q48 0 68.5 42.5t21.5 131.5h158q-3 -172 -79 -240.5t-152 -68.5q-81 0 -146 77v-59h-151v94h-4 q-56 -108 -166 -108q-66 0 -115 40.5t-75.5 121.5t-26.5 284zM289 475q0 -188 20 -268t82 -80q58 0 81.5 67.5t23.5 221.5q0 180 -18.5 253.5t-84.5 73.5h-2q-54 0 -78 -64t-24 -204zM664 532h202q-1 123 -22 181.5t-76 58.5q-59 0 -81.5 -55.5t-22.5 -184.5z" />
<glyph unicode="&#xe7;" horiz-adv-x="555" d="M96 -410l11 117h22l56 -4q178 0 178 76q0 67 -142 67h-16l53 177h133l-32 -107q81 -10 125.5 -50t44.5 -97q0 -86 -80.5 -138.5t-216.5 -52.5q-59 0 -136 12zM104 444q0 251 79 348t184 97q52 0 141 -31v-139q-58 26 -92 26q-71 0 -103 -76.5t-32 -240.5q0 -297 129 -297 q37 0 100 31v-135q-81 -39 -148 -39q-134 0 -196 110t-62 346z" />
<glyph unicode="&#xe8;" d="M117 418q0 469 282 469q107 0 183.5 -81t76.5 -335v-63h-368q0 -142 19.5 -214.5t92.5 -72.5q56 0 76 42t21 132h149q-7 -307 -260 -307q-272 0 -272 430zM121 1264h242l135 -279h-146zM291 535h203q0 130 -21 186.5t-76 56.5q-65 0 -85.5 -59.5t-20.5 -183.5z" />
<glyph unicode="&#xe9;" d="M117 418q0 469 282 469q107 0 183.5 -81t76.5 -335v-63h-368q0 -142 19.5 -214.5t92.5 -72.5q56 0 76 42t21 132h149q-7 -307 -260 -307q-272 0 -272 430zM256 985l133 279h236l-221 -279h-148zM291 535h203q0 130 -21 186.5t-76 56.5q-65 0 -85.5 -59.5t-20.5 -183.5z " />
<glyph unicode="&#xea;" d="M57 985l217 279h190l225 -279h-204l-109 170l-115 -170h-204zM117 418q0 469 282 469q107 0 183.5 -81t76.5 -335v-63h-368q0 -142 19.5 -214.5t92.5 -72.5q56 0 76 42t21 132h149q-7 -307 -260 -307q-272 0 -272 430zM291 535h203q0 130 -21 186.5t-76 56.5 q-65 0 -85.5 -59.5t-20.5 -183.5z" />
<glyph unicode="&#xeb;" d="M66 1106q0 43 31 73.5t75 30.5q43 0 74 -30.5t31 -73.5q0 -44 -31 -75.5t-74 -31.5q-44 0 -75 31.5t-31 75.5zM117 418q0 469 282 469q107 0 183.5 -81t76.5 -335v-63h-368q0 -142 19.5 -214.5t92.5 -72.5q56 0 76 42t21 132h149q-7 -307 -260 -307q-272 0 -272 430z M291 535h203q0 130 -21 186.5t-76 56.5q-65 0 -85.5 -59.5t-20.5 -183.5zM471 1106q0 43 31 73.5t74 30.5q44 0 75 -30.5t31 -73.5q0 -44 -31 -75.5t-75 -31.5q-43 0 -74 31.5t-31 75.5z" />
<glyph unicode="&#xec;" horiz-adv-x="385" d="M-59 1264h242l135 -279h-146zM131 0v872h162v-872h-162z" />
<glyph unicode="&#xed;" horiz-adv-x="385" d="M76 985l133 279h236l-221 -279h-148zM131 0v872h162v-872h-162z" />
<glyph unicode="&#xee;" horiz-adv-x="385" d="M-123 985l217 279h190l225 -279h-204l-109 170l-115 -170h-204zM131 0v872h162v-872h-162z" />
<glyph unicode="&#xef;" horiz-adv-x="385" d="M-115 1106q0 43 31 73.5t75 30.5q43 0 74 -30.5t31 -73.5q0 -44 -31 -75.5t-74 -31.5q-44 0 -75 31.5t-31 75.5zM131 0v872h162v-872h-162zM290 1106q0 43 31 73.5t74 30.5q44 0 75 -30.5t31 -73.5q0 -44 -31 -75.5t-75 -31.5q-43 0 -74 31.5t-31 75.5z" />
<glyph unicode="&#xf0;" d="M111 377v131q0 173 71.5 274t192.5 101q48 0 82 -15q-32 149 -113 248l-158 -98l-36 53l151 94q-40 39 -82 66l86 82q62 -33 113 -76l121 74l34 -51l-110 -70q101 -105 152 -283t51 -370v-129q0 -422 -277 -422q-133 0 -205.5 101.5t-72.5 289.5zM285 319 q0 -200 106 -200q98 0 98 200v254q0 81 -28.5 131t-73.5 50q-102 0 -102 -181v-254z" />
<glyph unicode="&#xf1;" d="M39 1010v12q0 93 58 154t147 61q46 0 138 -42t124 -42q36 0 51 21t21 67h131q-4 -111 -55.5 -170t-139.5 -59q-67 0 -149 47q-81 45 -117 45q-34 0 -55 -24t-21 -62v-8h-133zM121 0v877h166v-84h4q63 96 170 96q190 0 190 -207v-682h-162v635q0 129 -102 129 q-47 0 -74.5 -34.5t-27.5 -94.5v-635h-164z" />
<glyph unicode="&#xf2;" d="M106 432q0 277 80 367t199 90h4q125 0 201 -95t76 -368q0 -256 -79.5 -347t-195.5 -91q-145 0 -215 109t-70 335zM121 1264h242l135 -279h-146zM283 504q0 -265 24.5 -324t81.5 -59q61 0 82 59.5t21 204.5q0 223 -21 296t-84 73q-60 0 -82 -57t-22 -193z" />
<glyph unicode="&#xf3;" d="M106 432q0 277 80 367t199 90h4q125 0 201 -95t76 -368q0 -256 -79.5 -347t-195.5 -91q-145 0 -215 109t-70 335zM256 985l133 279h236l-221 -279h-148zM283 504q0 -265 24.5 -324t81.5 -59q61 0 82 59.5t21 204.5q0 223 -21 296t-84 73q-60 0 -82 -57t-22 -193z" />
<glyph unicode="&#xf4;" d="M57 985l217 279h190l225 -279h-204l-109 170l-115 -170h-204zM106 432q0 277 80 367t199 90h4q125 0 201 -95t76 -368q0 -256 -79.5 -347t-195.5 -91q-145 0 -215 109t-70 335zM283 504q0 -265 24.5 -324t81.5 -59q61 0 82 59.5t21 204.5q0 223 -21 296t-84 73 q-60 0 -82 -57t-22 -193z" />
<glyph unicode="&#xf5;" d="M61 1010v12q0 93 58 154t147 61q46 0 138 -42t124 -42q36 0 51 21t21 67h131q-4 -111 -55.5 -170t-139.5 -59q-67 0 -149 47q-81 45 -117 45q-34 0 -55 -24t-21 -62v-8h-133zM106 432q0 277 80 367t199 90h4q125 0 201 -95t76 -368q0 -256 -79.5 -347t-195.5 -91 q-145 0 -215 109t-70 335zM283 504q0 -265 24.5 -324t81.5 -59q61 0 82 59.5t21 204.5q0 223 -21 296t-84 73q-60 0 -82 -57t-22 -193z" />
<glyph unicode="&#xf6;" d="M66 1106q0 43 31 73.5t75 30.5q43 0 74 -30.5t31 -73.5q0 -44 -31 -75.5t-74 -31.5q-44 0 -75 31.5t-31 75.5zM106 432q0 277 80 367t199 90h4q125 0 201 -95t76 -368q0 -256 -79.5 -347t-195.5 -91q-145 0 -215 109t-70 335zM283 504q0 -265 24.5 -324t81.5 -59 q61 0 82 59.5t21 204.5q0 223 -21 296t-84 73q-60 0 -82 -57t-22 -193zM471 1106q0 43 31 73.5t74 30.5q44 0 75 -30.5t31 -73.5q0 -44 -31 -75.5t-75 -31.5q-43 0 -74 31.5t-31 75.5z" />
<glyph unicode="&#xf7;" horiz-adv-x="1366" d="M139 598v127h1090v-127h-1090zM596 252q0 35 25.5 60.5t60.5 25.5t59.5 -25t24.5 -59q0 -36 -24.5 -61t-59.5 -25t-60.5 25t-25.5 59zM596 1080q0 37 26 60t60 23q33 0 57.5 -25t24.5 -59q0 -35 -24 -60.5t-58 -25.5q-35 0 -60.5 26t-25.5 61z" />
<glyph unicode="&#xf8;" d="M102 444q0 225 69.5 334t213.5 109q44 0 102 -19l13 39l61 -22l-14 -51q81 -75 100 -175.5t19 -224.5q0 -226 -68 -335t-209 -109q-41 0 -108 16l-17 -39l-61 23l16 51q-65 62 -91 156.5t-26 246.5zM283 455l2 -199h4l155 473q-6 3 -22 14t-35 11q-59 0 -81.5 -58.5 t-22.5 -193.5v-47zM326 150q23 -27 61 -27q66 0 83 65.5t17 225.5v67q0 94 -6 144h-4z" />
<glyph unicode="&#xf9;" d="M121 1264h242l135 -279h-146zM123 268v609h162v-611q0 -145 104 -145q55 0 77.5 37t22.5 123v596h162v-601q0 -153 -61 -220.5t-201 -67.5t-203 66.5t-63 213.5z" />
<glyph unicode="&#xfa;" d="M123 268v609h162v-611q0 -145 104 -145q55 0 77.5 37t22.5 123v596h162v-601q0 -153 -61 -220.5t-201 -67.5t-203 66.5t-63 213.5zM256 985l133 279h236l-221 -279h-148z" />
<glyph unicode="&#xfb;" d="M57 985l217 279h190l225 -279h-204l-109 170l-115 -170h-204zM123 268v609h162v-611q0 -145 104 -145q55 0 77.5 37t22.5 123v596h162v-601q0 -153 -61 -220.5t-201 -67.5t-203 66.5t-63 213.5z" />
<glyph unicode="&#xfc;" d="M66 1106q0 43 31 73.5t75 30.5q43 0 74 -30.5t31 -73.5q0 -44 -31 -75.5t-74 -31.5q-44 0 -75 31.5t-31 75.5zM123 268v609h162v-611q0 -145 104 -145q55 0 77.5 37t22.5 123v596h162v-601q0 -153 -61 -220.5t-201 -67.5t-203 66.5t-63 213.5zM471 1106q0 43 31 73.5 t74 30.5q44 0 75 -30.5t31 -73.5q0 -44 -31 -75.5t-75 -31.5q-43 0 -74 31.5t-31 75.5z" />
<glyph unicode="&#xfd;" d="M66 874h163l144 -602h4l178 602h156l-408 -1261h-143l143 465zM256 985l133 279h236l-221 -279h-148z" />
<glyph unicode="&#xfe;" d="M131 -387v1704h162v-545h4q62 115 170 115q87 0 149 -81t62 -372q0 -278 -60.5 -363t-148.5 -85q-99 0 -168 108h-4v-481h-166zM295 315q0 -83 28 -135.5t70 -52.5q59 0 85 64t26 204q0 192 -23 272.5t-88 80.5q-44 0 -71 -49t-27 -130v-254z" />
<glyph unicode="&#xff;" d="M66 874h163l144 -602h4l178 602h156l-408 -1261h-143l143 465zM66 1106q0 43 31 73.5t75 30.5q43 0 74 -30.5t31 -73.5q0 -44 -31 -75.5t-74 -31.5q-44 0 -75 31.5t-31 75.5zM471 1106q0 43 31 73.5t74 30.5q44 0 75 -30.5t31 -73.5q0 -44 -31 -75.5t-75 -31.5 q-43 0 -74 31.5t-31 75.5z" />
<glyph unicode="&#x152;" horiz-adv-x="1130" d="M115 651q0 270 35.5 398.5t114.5 180.5t216 52l176 -8h418v-144h-282v-403h262v-145h-262v-439h292v-143h-452l-230 -6h-5q-69 0 -143 57q-77 59 -108.5 185.5t-31.5 414.5zM299 715q0 -26 7.5 -214.5t11 -216.5t22.5 -70t52 -60.5t85 -18.5q8 0 54.5 5t86.5 5v985l-86 5 q-20 2 -57 2q-108 0 -142 -95t-34 -327z" />
<glyph unicode="&#x153;" horiz-adv-x="1130" d="M102 455q0 254 84.5 343t219.5 89q95 0 182 -76q53 38 90 57t92 19q90 0 155 -50.5t88 -123.5t23 -228v-84h-366q0 -154 23 -219t87 -65q90 0 90 172h160q-9 -307 -260 -307q-115 0 -184 71q-85 -71 -197 -71q-140 0 -213.5 103.5t-73.5 369.5zM281 463q0 -188 20.5 -266 t91.5 -78q62 0 86.5 66t24.5 216q0 192 -21 271.5t-88 79.5q-62 0 -88 -68t-26 -221zM670 532h200q0 122 -21 181t-81 59q-54 0 -76 -56.5t-22 -183.5z" />
<glyph unicode="&#x178;" d="M59 1274h170l158 -572h4l160 572h170l-248 -731v-543h-172v535zM66 1493q0 43 31 73.5t75 30.5q43 0 74 -30.5t31 -73.5q0 -44 -31 -75.5t-74 -31.5q-44 0 -75 31.5t-31 75.5zM471 1493q0 43 31 73.5t74 30.5q44 0 75 -30.5t31 -73.5q0 -44 -31 -75.5t-75 -31.5 q-43 0 -74 31.5t-31 75.5z" />
<glyph unicode="&#x2c6;" horiz-adv-x="682" d="M25 985l217 279h190l225 -279h-204l-109 170l-115 -170h-204z" />
<glyph unicode="&#x2dc;" horiz-adv-x="682" d="M6 1010v12q0 93 58 154t147 61q46 0 138 -42t124 -42q36 0 51 21t21 67h131q-4 -111 -55.5 -170t-139.5 -59q-67 0 -149 47q-81 45 -117 45q-34 0 -55 -24t-21 -62v-8h-133z" />
<glyph unicode="&#x2013;" horiz-adv-x="1024" d="M4 418v180h1043v-180h-1043z" />
<glyph unicode="&#x2014;" horiz-adv-x="2048" d="M-2 422v182h2070v-182h-2070z" />
<glyph unicode="&#x2018;" horiz-adv-x="385" d="M129 881v163q0 44 25.5 111t66.5 127l58 -37q-42 -54 -57 -90.5t-15 -99.5h92v-174h-170z" />
<glyph unicode="&#x2019;" horiz-adv-x="385" d="M125 1106v174h174v-137q0 -140 -96 -262l-53 32q73 114 73 177q0 8 -2 16h-96z" />
<glyph unicode="&#x201a;" horiz-adv-x="385" d="M80 -242l141 473l129 -51l-192 -448z" />
<glyph unicode="&#x201c;" horiz-adv-x="662" d="M129 881v166q0 107 94 233l53 -33q-68 -105 -71 -192h94v-174h-170zM406 881v166q0 96 94 233l55 -35q-67 -92 -74 -190h97v-174h-172z" />
<glyph unicode="&#x201d;" horiz-adv-x="662" d="M127 1106v174h174v-137q0 -142 -98 -262l-53 32q71 101 71 177v16h-94zM401 1106v174h177v-137q0 -61 -26.5 -135t-70.5 -127l-55 32q69 99 72 193h-97z" />
<glyph unicode="&#x201e;" horiz-adv-x="662" d="M129 2v174h174v-137q0 -137 -96 -260l-53 31q69 102 69 192h-94zM403 2v174h177v-133q0 -133 -97 -266l-55 33q62 83 74 192h-99z" />
<glyph unicode="&#x2022;" horiz-adv-x="717" d="M104 717q0 105 75 179.5t179 74.5q105 0 179.5 -74.5t74.5 -179.5q0 -104 -74.5 -178t-179.5 -74q-104 0 -179 74t-75 178z" />
<glyph unicode="&#x2026;" horiz-adv-x="2048" d="M227 88q0 45 32 77t77 32q50 0 82.5 -32t32.5 -81q0 -45 -32 -77t-77 -32q-49 0 -82 32.5t-33 80.5zM911 90q0 44 33 76.5t78 32.5h2q47 0 78 -32t31 -79q0 -46 -31.5 -78.5t-77.5 -32.5q-49 0 -81 32t-32 81zM1595 86q0 46 32.5 78.5t78.5 32.5t78.5 -32.5t32.5 -78.5 t-32.5 -78.5t-78.5 -32.5q-45 0 -78 33t-33 78z" />
<glyph unicode="&#x2039;" horiz-adv-x="449" d="M98 551l103 473h168l-103 -469l99 -471h-164z" />
<glyph unicode="&#x203a;" horiz-adv-x="449" d="M96 84l103 471l-103 469h168l103 -469l-103 -471h-168z" />
<glyph unicode="&#x20ac;" d="M49 463l17 125h90v102h-101l19 125h86q0 228 86 354.5t254 126.5q78 0 168 -20v-156q-65 23 -129 23q-103 0 -154 -82t-51 -246h278l-14 -125h-264v-102h252l-15 -125h-237q0 -185 55.5 -252.5t155.5 -67.5q51 0 123 31v-151q-76 -37 -154 -37q-177 0 -265.5 119 t-88.5 358h-111z" />
<glyph unicode="&#x2122;" horiz-adv-x="2048" d="M225 1346v120h666v-120h-266v-695h-136v695h-264zM983 651v815h201l202 -651h5l196 651h197v-815h-125v684h-4l-205 -684h-123l-215 695h-4v-695h-125z" />
<glyph unicode="&#xe000;" horiz-adv-x="875" d="M0 875h875v-875h-875v875z" />
<glyph unicode="&#xf001;" d="M59 752v122h88v189q0 256 195 256q52 0 104 -14v-144q-19 13 -57 13q-80 0 -80 -125v-175h135v-122h-135v-752h-162v752h-88zM502 0v874h168v-874h-168z" />
<glyph unicode="&#xfb01;" d="M59 752v122h88v189q0 256 195 256q52 0 104 -14v-144q-19 13 -57 13q-80 0 -80 -125v-175h135v-122h-135v-752h-162v752h-88zM502 0v874h168v-874h-168z" />
<glyph unicode="&#xf002;" d="M41 750v124h90v170q0 132 68.5 202.5t195.5 70.5q131 0 202 -70.5t71 -199.5v-1047h-166v1038q0 146 -103 146q-45 0 -73.5 -36.5t-28.5 -94.5v-179h137v-124h-137v-750h-166v750h-90z" />
<glyph unicode="&#xfb02;" d="M41 750v124h90v170q0 132 68.5 202.5t195.5 70.5q131 0 202 -70.5t71 -199.5v-1047h-166v1038q0 146 -103 146q-45 0 -73.5 -36.5t-28.5 -94.5v-179h137v-124h-137v-750h-166v750h-90z" />
<glyph unicode="&#xfb03;" horiz-adv-x="1323" d="M59 750v124h88v187q0 256 195 256q60 0 104 -12v-146q-13 12 -57 12q-80 0 -80 -122v-175h135v-124h-135v-750h-162v750h-88zM528 750v124h88v187q0 256 195 256q60 0 104 -12v-146q-13 12 -57 12q-80 0 -80 -122v-175h135v-124h-135v-750h-162v750h-88zM1059 1141 q0 36 26.5 63t63.5 27t63.5 -27t26.5 -63q0 -37 -26.5 -63.5t-63.5 -26.5q-38 0 -64 26.5t-26 63.5zM1067 0v874h162v-874h-162z" />
<glyph unicode="&#xfb04;" horiz-adv-x="1323" d="M59 750v124h88v187q0 256 195 256q60 0 104 -12v-146q-13 12 -57 12q-80 0 -80 -122v-175h135v-124h-135v-750h-162v750h-88zM528 750v124h88v187q0 256 195 256q60 0 104 -12v-146q-13 12 -57 12q-80 0 -80 -122v-175h135v-124h-135v-750h-162v750h-88zM1067 0v1319h164 v-1319h-164z" />
</font>
</defs>
</svg>
